<svg width="18" height="18" viewBox="0 0 18 18" fill="none" xmlns="http://www.w3.org/2000/svg">
<path d="M16.3633 0H1.636C0.731907 0 -0.000366211 0.732273 -0.000366211 1.63636V16.3636C-0.000366211 17.2677 0.731907 18 1.636 18H16.3633C17.2674 18 17.9996 17.2677 17.9996 16.3636V1.63636C17.9996 0.732273 17.2674 0 16.3633 0ZM15.1704 13.9091H10.3177V13.6366L11.4542 12.6368V6.93L8.66336 13.9091H8.22727L5.11327 6.87518V11.8555L6.53691 13.6366V13.9091H2.82891V13.6366L4.30082 11.8555V5.93018L2.99254 4.29464C2.99254 4.29464 2.99254 4.05818 2.99254 4.095H6.57291L9.35391 10.1111L11.7528 4.095H15.1515V4.29464L13.9087 5.33945V12.6368L15.1704 13.6366V13.9091Z" fill="white"/>
</svg>
