<svg width="20" height="20" viewBox="0 0 20 20" fill="none" xmlns="http://www.w3.org/2000/svg">
<g clip-path="url(#clip0_2_244)">
<path d="M20.0246 4.17495C19.2856 4.50308 18.4934 4.72339 17.6606 4.82339C18.5106 4.31401 19.1637 3.50776 19.4699 2.54839C18.6762 3.0187 17.7934 3.36089 16.8574 3.54526C16.1074 2.74526 15.0387 2.24683 13.8559 2.24683C11.584 2.24683 9.74182 4.08745 9.74182 6.35933C9.74182 6.6812 9.77932 6.99526 9.84964 7.29683C6.43088 7.12495 3.4012 5.48745 1.37151 2.99839C1.01682 3.60776 0.815259 4.31401 0.815259 5.06714C0.815259 6.4937 1.54026 7.75308 2.64495 8.49214C1.96995 8.47026 1.33557 8.28433 0.780884 7.97651C0.780884 7.9937 0.780884 8.01089 0.780884 8.02808C0.780884 10.0218 2.19963 11.6828 4.07932 12.0625C3.73557 12.1562 3.37151 12.2062 2.99651 12.2062C2.73088 12.2062 2.47307 12.1812 2.22151 12.1312C2.74651 13.764 4.26526 14.9562 6.0637 14.989C4.65745 16.0921 2.88401 16.7484 0.955884 16.7484C0.623071 16.7484 0.296509 16.7296 -0.0238037 16.6906C1.79495 17.8593 3.95745 18.539 6.28088 18.539C13.8465 18.539 17.984 12.2718 17.984 6.83745C17.984 6.65933 17.9793 6.47964 17.9731 6.30464C18.7762 5.72495 19.4731 4.99995 20.0246 4.17495Z" fill="white"/>
</g>
<defs>
<clipPath id="clip0_2_244">
<rect width="20" height="20" fill="white" transform="translate(-0.000366211)"/>
</clipPath>
</defs>
</svg>
